<svg width="200" height="223" viewBox="0 0 200 223" fill="none" xmlns="http://www.w3.org/2000/svg">
<path d="M162.188 181.95L83.5879 203.011C75.6922 205.127 67.5834 200.445 65.4677 192.549L32.9191 71.0761C30.8034 63.1804 35.485 55.0716 43.3808 52.9559L121.981 31.895C129.877 29.7794 137.986 34.461 140.101 42.3567L172.65 163.83C174.766 171.726 170.084 179.834 162.188 181.95Z" fill="white"/>
<g opacity="0.1" filter="url(#filter0_f)">
<path d="M164.739 174.634L76.1348 198.375C68.2391 200.491 60.1303 195.809 58.0146 187.914L25.466 66.4404C23.3503 58.5446 28.0319 50.4358 35.9277 48.3202L124.532 24.5788C132.427 22.4632 140.536 27.1448 142.652 35.0405L175.2 156.514C177.316 164.409 172.635 172.518 164.739 174.634Z" fill="#757575"/>
</g>
<path d="M164.506 173.768L75.9024 197.509C68.0066 199.625 59.8978 194.943 57.7822 187.048L25.2335 65.5744C23.1179 57.6787 27.7995 49.5699 35.6953 47.4542L124.299 23.7128C132.195 21.5972 140.304 26.2788 142.419 34.1746L174.968 155.648C177.084 163.543 172.402 171.652 164.506 173.768Z" fill="white"/>
<circle cx="100.742" cy="110.213" r="30" transform="rotate(-15 100.742 110.213)" fill="#11C15B"/>
<path fill-rule="evenodd" clip-rule="evenodd" d="M111.046 122.079L97.5573 125.694C94.9072 126.4 92.1892 124.83 91.4794 122.181L86.997 105.453C86.9772 105.379 86.9648 105.303 86.9608 105.229C86.96 105.182 86.9602 105.138 86.9641 105.094C86.982 105.058 86.9751 105.032 86.9682 105.006C86.9784 104.956 86.9887 104.905 87.0027 104.854C87.0045 104.848 87.0073 104.841 87.0101 104.834C87.0166 104.817 87.0235 104.799 87.0201 104.786C87.0448 104.716 87.0743 104.649 87.1094 104.588L91.7678 96.5306C91.8029 96.4698 91.8427 96.4117 91.8882 96.36L91.942 96.3099C91.9756 96.2732 92.014 96.2392 92.0523 96.2052L92.1229 96.1587C92.1595 96.133 92.1998 96.1064 92.2412 96.0835C92.3073 96.0499 92.3791 96.0228 92.4529 96.003L103.282 93.1014C105.931 92.3916 108.654 93.9635 109.363 96.6126L114.558 115.998C115.267 118.647 113.695 121.369 111.046 122.079ZM93.2717 104.962L89.5046 105.971L93.6894 121.589C94.072 123.017 95.5363 123.862 96.9641 123.48L110.453 119.865C111.881 119.483 112.726 118.019 112.344 116.591L107.15 97.2058C106.767 95.778 105.303 94.9326 103.875 95.3152L94.1529 97.9202L95.1623 101.687C95.5449 103.115 94.6995 104.579 93.2717 104.962ZM100.321 109.028L93.9711 110.73C93.3587 110.894 92.7318 110.532 92.5677 109.92C92.4036 109.307 92.7655 108.68 93.378 108.516L99.7277 106.815C100.34 106.651 100.967 107.013 101.131 107.625C101.295 108.238 100.933 108.864 100.321 109.028ZM95.1871 115.268L107.887 111.865C108.499 111.701 108.861 111.074 108.697 110.462C108.533 109.849 107.906 109.487 107.293 109.652L94.594 113.054C93.9815 113.218 93.6196 113.845 93.7837 114.458C93.9478 115.07 94.5747 115.432 95.1871 115.268ZM109.103 116.403L96.4031 119.806C95.7907 119.97 95.1638 119.608 94.9997 118.996C94.8356 118.383 95.1975 117.757 95.81 117.593L108.509 114.19C109.122 114.026 109.749 114.388 109.913 115C110.077 115.612 109.715 116.239 109.103 116.403Z" fill="white"/>
<defs>
<filter id="filter0_f" x="0.957031" y="0.0705566" width="198.751" height="222.813" filterUnits="userSpaceOnUse" color-interpolation-filters="sRGB">
<feFlood flood-opacity="0" result="BackgroundImageFix"/>
<feBlend mode="normal" in="SourceGraphic" in2="BackgroundImageFix" result="shape"/>
<feGaussianBlur stdDeviation="12" result="effect1_foregroundBlur"/>
</filter>
</defs>
</svg>
