<svg width="202" height="223" viewBox="0 0 202 223" fill="none" xmlns="http://www.w3.org/2000/svg">
<path d="M143.326 193.652L61.9533 193.652C53.779 193.652 47.1582 187.031 47.1582 178.857L47.1582 53.0986C47.1582 44.9243 53.779 38.3035 61.9533 38.3035L143.326 38.3035C151.501 38.3035 158.121 44.9243 158.121 53.0986L158.121 178.857C158.121 187.031 151.501 193.652 143.326 193.652Z" fill="white"/>
<g opacity="0.1" filter="url(#filter0_f)">
<path d="M147.683 187.245L55.9533 187.245C47.779 187.245 41.1582 180.624 41.1582 172.45L41.1582 46.6916C41.1582 38.5173 47.779 31.8965 55.9533 31.8965L147.683 31.8965C155.857 31.8965 162.478 38.5173 162.478 46.6916L162.478 172.45C162.478 180.624 155.857 187.245 147.683 187.245Z" fill="#757575"/>
</g>
<path d="M147.683 186.348L55.9533 186.348C47.779 186.348 41.1582 179.728 41.1582 171.553L41.1582 45.7951C41.1582 37.6208 47.779 31 55.9533 31L147.683 31C155.857 31 162.478 37.6208 162.478 45.7951L162.478 171.553C162.478 179.728 155.857 186.348 147.683 186.348Z" fill="white"/>
<circle cx="102" cy="109" r="30" fill="#FF8B26"/>
<path fill-rule="evenodd" clip-rule="evenodd" d="M102 92C92.6075 92 85 99.6075 85 109C85 116.522 89.8662 122.876 96.6237 125.129C97.4737 125.278 97.7925 124.768 97.7925 124.321C97.7925 123.917 97.7713 122.579 97.7713 121.155C93.5 121.941 92.395 120.114 92.055 119.157C91.8637 118.669 91.035 117.16 90.3125 116.756C89.7175 116.438 88.8675 115.651 90.2913 115.63C91.63 115.609 92.5862 116.862 92.905 117.372C94.435 119.944 96.8788 119.221 97.8563 118.775C98.005 117.67 98.4513 116.926 98.94 116.501C95.1575 116.076 91.205 114.61 91.205 108.108C91.205 106.259 91.8637 104.729 92.9475 103.539C92.7775 103.114 92.1825 101.371 93.1175 99.0338C93.1175 99.0338 94.5413 98.5875 97.7925 100.776C99.1525 100.394 100.598 100.202 102.043 100.202C103.488 100.202 104.933 100.394 106.293 100.776C109.544 98.5663 110.968 99.0338 110.968 99.0338C111.903 101.371 111.308 103.114 111.138 103.539C112.221 104.729 112.88 106.238 112.88 108.108C112.88 114.631 108.906 116.076 105.124 116.501C105.74 117.032 106.271 118.052 106.271 119.646C106.271 121.92 106.25 123.747 106.25 124.321C106.25 124.768 106.569 125.299 107.419 125.129C114.134 122.876 119 116.501 119 109C119 99.6075 111.392 92 102 92Z" fill="white"/>
<defs>
<filter id="filter0_f" x="17.1582" y="7.89648" width="169.32" height="203.348" filterUnits="userSpaceOnUse" color-interpolation-filters="sRGB">
<feFlood flood-opacity="0" result="BackgroundImageFix"/>
<feBlend mode="normal" in="SourceGraphic" in2="BackgroundImageFix" result="shape"/>
<feGaussianBlur stdDeviation="12" result="effect1_foregroundBlur"/>
</filter>
</defs>
</svg>
